<?xml version="1.0" encoding="UTF-8"?>
<svg width="32px" height="32px" viewBox="0 0 32 32" version="1.1" xmlns="http://www.w3.org/2000/svg" xmlns:xlink="http://www.w3.org/1999/xlink">
    <!-- Generator: Sketch 55.1 (78136) - https://sketchapp.com -->
    <title>icon-sliders-32-color</title>
    <desc>Created with Sketch.</desc>
    <g id="icon-sliders-32-color" stroke="none" stroke-width="1" fill="none" fill-rule="evenodd">
        <path d="M0,17 L0,15 L19.3054199,15 L19.3054199,17 L0,17 Z M25.1240234,17 L25.1240234,15 L32,15 L32,17 L25.1240234,17 Z" id="Path-4" fill="#00BFB3" fill-rule="nonzero"></path>
        <path d="M-0.0986160619,28 L-0.0986160619,26 L12.0795898,26 L12.0795898,28 L-0.0986160619,28 Z M18.0029297,28 L18.0029297,26 L31.9013839,26 L31.9013839,28 L18.0029297,28 Z" id="Path-4" fill="#00BFB3" fill-rule="nonzero"></path>
        <path d="M0,6 L0,4 L6.19165039,4 L6.19165039,6 L0,6 Z M12.1359863,6 L12.1359863,4 L32,4 L32,6 L12.1359863,6 Z" id="Path-4" fill="#00BFB3" fill-rule="nonzero"></path>
        <path d="M9,9 C11.209139,9 13,7.209139 13,5 C13,2.790861 11.209139,1 9,1 C6.790861,1 5,2.790861 5,5 C5,7.209139 6.790861,9 9,9 Z M9,7 C7.8954305,7 7,6.1045695 7,5 C7,3.8954305 7.8954305,3 9,3 C10.1045695,3 11,3.8954305 11,5 C11,6.1045695 10.1045695,7 9,7 Z" id="Oval" fill="#545966" fill-rule="nonzero"></path>
        <path d="M15,31 C17.209139,31 19,29.209139 19,27 C19,24.790861 17.209139,23 15,23 C12.790861,23 11,24.790861 11,27 C11,29.209139 12.790861,31 15,31 Z M15,29 C13.8954305,29 13,28.1045695 13,27 C13,25.8954305 13.8954305,25 15,25 C16.1045695,25 17,25.8954305 17,27 C17,28.1045695 16.1045695,29 15,29 Z" id="Oval" fill="#545966" fill-rule="nonzero"></path>
        <path d="M23,20 C25.209139,20 27,18.209139 27,16 C27,13.790861 25.209139,12 23,12 C20.790861,12 19,13.790861 19,16 C19,18.209139 20.790861,20 23,20 Z M23,18 C21.8954305,18 21,17.1045695 21,16 C21,14.8954305 21.8954305,14 23,14 C24.1045695,14 25,14.8954305 25,16 C25,17.1045695 24.1045695,18 23,18 Z" id="Oval" fill="#545966" fill-rule="nonzero"></path>
    </g>
</svg>