<?xml version="1.0" encoding="UTF-8"?>
<svg width="32px" height="32px" viewBox="0 0 32 32" version="1.1" xmlns="http://www.w3.org/2000/svg" xmlns:xlink="http://www.w3.org/1999/xlink">
    <!-- Generator: Sketch 55.2 (78181) - https://sketchapp.com -->
    <title>icon-cog-plus-32-color</title>
    <desc>Created with Sketch.</desc>
    <g id="icon-cog-plus-32-color" stroke="none" stroke-width="1" fill="none" fill-rule="evenodd">
        <path d="M27.8785735,16.0002133 C27.8785735,15.5189674 27.848723,15.0385905 27.7900507,14.5595026 L30.4842498,12.2270205 C31.1857497,11.6195542 31.3574177,10.6001121 30.8935839,9.79645712 L28.8191877,6.20365321 C28.3557871,5.39998392 27.3861137,5.03859223 26.5092739,5.34294619 L23.1587504,6.50422702 C22.383153,5.91550191 21.5382321,5.42345692 20.6420133,5.04039736 L19.9746492,1.56980843 C19.7993942,0.658659349 19.0021659,0 18.0744204,0 L13.9255796,0 C12.9978341,0 12.2006058,0.658659349 12.0253606,1.56975762 L11.3644324,5.00728481 C10.4479486,5.39122013 9.58399353,5.88884166 8.79196866,6.48705237 L5.49027499,5.34278974 C4.6139726,5.03862219 3.64469392,5.3999154 3.18072986,6.20379605 L1.10649856,9.79631428 C0.642582284,10.6001121 0.81425034,11.6195542 1.51565903,12.2269415 L4.14609232,14.5040963 C4.08268244,15.0018096 4.05038401,15.5005827 4.05038401,16.0002133 C4.05038401,16.4995648 4.08268588,16.9982488 4.14609121,17.4959047 L1.5157704,19.7729621 C0.814236341,20.3800164 0.642491947,21.4001728 1.10653502,22.2037489 L3.18081231,25.7963468 C3.64487242,26.5999523 4.61406749,26.9613449 5.49072608,26.6570538 L8.79203858,25.5129234 C9.58404375,26.1109985 10.4479682,26.608599 11.3644103,26.9926297 L12.0253448,30.4303736 C12.20067,31.3414466 12.9979281,32 13.9255796,32 L18.0744204,32 C19.0020719,32 19.79933,31.3414466 19.9746224,30.430544 L20.6420215,26.9595884 C21.5380422,26.5765792 22.3829562,26.0844976 23.15869,25.495752 L26.509701,26.6572019 C27.3860188,26.9613748 28.3556088,26.5998837 28.8193573,25.796053 L30.8935014,22.2036857 C31.3575081,21.4001728 31.1857637,20.3800164 30.484069,19.772823 L27.7900415,17.4404894 C27.8487212,16.9613769 27.8785735,16.4811789 27.8785735,16.0002133 Z M27.1139488,24.7499091 L23.2935987,23.4257877 L22.7583562,23.2402743 L22.3240594,23.6039857 C21.4573484,24.3298316 20.4741142,24.9032013 19.4150662,25.2965291 L18.8874838,25.4924719 L18.0207714,30 L13.9792298,30 L13.2243352,26.0735377 L13.117143,25.515995 L12.5834445,25.3223202 C11.5052058,24.9310363 10.5040926,24.3540306 9.62324456,23.6200884 L9.18932071,23.2585333 L4.88605181,24.7499103 L2.86529329,21.2500055 L5.87151448,18.6475329 L6.29961911,18.2769246 L6.2020439,17.7191583 C6.10165555,17.1453114 6.05038401,16.5723108 6.05038401,16.0002133 C6.05038401,15.4277397 6.10164706,14.8547371 6.2020439,14.2808417 L6.29961911,13.7230754 L2.86529329,10.7499944 L4.88605187,7.25008964 L8.6556502,8.55651335 L9.18940238,8.74149498 L9.62334525,8.37982774 C10.5041244,7.64574735 11.5051507,7.06879174 12.5832966,6.67773347 L13.1171172,6.48410944 L13.9792702,2 L18.020731,2 L18.7812177,5.95486801 L18.8874899,6.50753038 L19.4150662,6.7034709 C20.4744801,7.09693457 21.4576203,7.67020043 22.3239577,8.39592914 L22.7582734,8.75975437 L27.113949,7.25009089 L29.1347074,10.7499957 L26.0670232,13.4058198 L25.6413917,13.774307 L25.7356789,14.3293339 C25.8302988,14.8863188 25.8785735,15.4433678 25.8785735,16.0002133 C25.8785735,16.5566105 25.8303044,17.1134494 25.7356691,17.6707242 L25.641421,18.2257184 L29.1347074,21.2500043 L27.1139488,24.7499091 Z" id="Page-1" fill="#545966" fill-rule="nonzero"></path>
        <polygon id="Path-124" fill="#00BFB3" fill-rule="nonzero" points="15 10 15 22 17 22 17 10"></polygon>
        <polygon id="Path-124" fill="#00BFB3" fill-rule="nonzero" points="22 15 10 15 10 17 22 17"></polygon>
    </g>
</svg>