<?xml version="1.0" encoding="utf-8"?>
<!-- Generator: Adobe Illustrator 25.0.0, SVG Export Plug-In . SVG Version: 6.00 Build 0)  -->
<svg version="1.1" id="Layer_1" xmlns="http://www.w3.org/2000/svg" xmlns:xlink="http://www.w3.org/1999/xlink" x="0px" y="0px"
	 viewBox="0 0 560 300" style="enable-background:new 0 0 560 300;" xml:space="preserve">
<style type="text/css">
	.st0{clip-path:url(#SVGID_2_);}
	.st1{clip-path:url(#SVGID_4_);}
	.st2{fill:#7DE2D1;}
	.st3{fill:#42D4C6;}
	.st4{fill:#E6EBF2;}
	.st5{fill:none;}
</style>
<g>
	<defs>
		<rect id="SVGID_1_" x="247" width="313" height="238"/>
	</defs>
	<clipPath id="SVGID_2_">
		<use xlink:href="#SVGID_1_"  style="overflow:visible;"/>
	</clipPath>
	<g class="st0">
		<g>
			<defs>
				<rect id="SVGID_3_" x="247" y="-15" width="313" height="151"/>
			</defs>
			<clipPath id="SVGID_4_">
				<use xlink:href="#SVGID_3_"  style="overflow:visible;"/>
			</clipPath>
			<g class="st1">
				<path class="st2" d="M484.5,136h-162c-41.7,0-75.5-33.8-75.5-75.5S280.8-15,322.5-15h162c41.7,0,75.5,33.8,75.5,75.5
					S526.2,136,484.5,136z"/>
				<path class="st3" d="M540.1,92.9c0.2,0.7,0.8,1,1.4,0.8c0.5-0.2,0.8-1,0.6-1.6c-0.1-0.1-0.1-0.3-0.2-0.3c0.4-0.4,0.7-1,0.4-1.4
					c-0.3-0.4-1.3-0.8-1.6-0.5c-0.5,0.3-0.7,1.3-0.4,1.8l0.1,0.1C540.1,92,539.9,92.4,540.1,92.9z"/>
				<path class="st3" d="M536.4,109.2c0.2-0.1,0.4-0.5,0.2-0.7c-0.1-0.2-0.5-0.3-0.7-0.2c-0.2,0.1-0.5,0.6-0.4,0.8
					C535.7,109.3,536.3,109.3,536.4,109.2z"/>
				<path class="st3" d="M540.8,81c0.2-0.1,0.4-0.4,0.4-0.6c0-0.2-0.3-0.6-0.6-0.6c-0.3,0-0.3,0.6-0.3,0.8
					C540.3,80.8,540.6,81.1,540.8,81z"/>
				<path class="st3" d="M535.5,115c0.3,0.3,0.6,0.4,0.9,0.4c1-0.9,2-1.9,2.9-2.9c0-0.6-0.1-1.3-0.7-1.8c-1-0.8-2.2-0.5-3.1,0.3
					C534.7,111.7,534.8,114.2,535.5,115z"/>
				<path class="st3" d="M534.8,116.4c-0.2-0.1-0.8-0.1-0.9,0.2c0,0.2,0.1,0.5,0.3,0.6c-0.5,0.2-0.8,0.6-1,1c0.6-0.5,1.2-1,1.8-1.5
					C534.9,116.6,534.8,116.5,534.8,116.4z"/>
				<path class="st3" d="M512.2,128.9c-0.5,0.1-0.9,0.5-1.2,0.9c-0.6,0.1-1.2,0.5-1.4,1c-0.1,0.3,0,0.6,0.1,0.8
					c1.5-0.5,3.1-1.1,4.6-1.8C514,129.1,513.1,128.6,512.2,128.9z"/>
				<path class="st3" d="M522.2,123.1c0.4,1.1,0.9,1.5,1.7,1.3c0.6-0.2,1.1-1.3,0.9-1.9c-0.1-0.2-0.3-0.4-0.6-0.5c0,0,0,0,0-0.1
					c0.2-0.6,0.1-1-0.5-1.1c-0.4,0-1.3-0.3-1.5,0.3c-0.1,0.3,0,0.6,0.2,0.8C522.2,122.1,522.1,122.6,522.2,123.1z"/>
				<path class="st3" d="M545.3,104.4c-0.2,0.2-0.4,0.5-0.5,0.8c-0.5,0.1-1,0-1.4,0.4c-0.6,0.6-1.1,1.8-0.9,3c1.2-1.5,2.3-3,3.4-4.5
					C545.8,104.2,545.5,104.3,545.3,104.4z"/>
				<path class="st3" d="M553.6,76.6c-0.1,0-0.5,0.3-0.5,0.6c0.1,0.3,0.6,0.3,0.8,0.2c0.1,0,0.4-0.3,0.3-0.5
					C554.2,76.7,553.8,76.6,553.6,76.6z"/>
				<path class="st3" d="M545.8,97.4c0.2,0.8,0.8,1.4,1.5,1.5V99c-0.3,0.3-0.5,0.6-0.5,1.1c-0.1,0.9,0.2,1.6,0.7,2
					c1-1.6,2-3.2,2.9-4.8c-0.3-0.3-0.6-0.4-0.9-0.5c0-0.1,0-0.2-0.1-0.3c-0.1-0.3-0.2-0.6-0.4-0.8c0.2,0,0.5-0.1,0.7-0.3
					c0.5-0.6,0.2-1.6-0.5-2c-0.5-0.3-1.5-0.3-2,0.1c-0.7,0.6-0.4,1.5-0.3,1.7C546.1,95.5,545.5,96.6,545.8,97.4z"/>
				<path class="st3" d="M531.1,99.9c-0.7,0.2-1.3,1.5-1.1,2.1c0.3,1,1.1,1.4,2,1.1c0.9-0.3,1.2-1,0.9-1.9
					C532.7,100.3,531.8,99.7,531.1,99.9z"/>
				<path class="st3" d="M546.6,80.7c0.5,1.1,1.8,1.3,2.8,0.9c1-0.3,1.7-2.3,1-3.3c-0.2-0.3-0.5-0.4-0.8-0.4c-0.3-0.1-0.6-0.1-0.8,0
					c-0.4,0.1-1.1,0.4-1.3,1V79C546.9,79.2,546.2,79.7,546.6,80.7z"/>
				<path class="st3" d="M518.3,106.7c0.8-0.3,1.4-1.5,1.2-2.4c-0.2-0.6-1-0.9-1.7-0.7c-0.9,0.3-1.4,1-1.1,1.9
					C517,106.3,517.8,106.9,518.3,106.7z"/>
				<path class="st3" d="M517.8,115.1c1.1,0.4,2.2-0.2,2.5-1.3c0.2-0.9-0.3-1.9-1.2-2.2c-0.9-0.3-2,0.5-2.3,1.6
					C516.5,114.1,516.9,114.8,517.8,115.1z"/>
				<path class="st3" d="M535,95.6c0.4-0.4,0.3-1.4-0.4-1.6c-0.3-0.1-0.8,0.5-1.2,0.8c-0.1,0.1-0.3,0.3-0.1,0.6
					C533.5,95.9,534.5,96.1,535,95.6z"/>
				<path class="st3" d="M522.3,115.8c0.3,0.9,0.9,1.3,1.4,1.1c0.7-0.2,1.1-0.9,0.8-1.5c-0.2-0.6-0.8-0.8-1.4-0.5
					C522.7,115,522.2,115.2,522.3,115.8z"/>
				<path class="st3" d="M552,63c0.6,0.7,1.4,0.9,2.3,0.8c0.3,0,0.6-0.3,0.8-0.5c0.7-1,0.5-2-0.4-2.8c-0.2-0.2-0.4-0.3-0.5-0.5
					c0.3-0.3,0.6-0.6,0.9-1c0.5-0.7,0.4-1.1-0.1-1.6s-1.2-0.6-1.9-0.4c-0.7,0.3-0.9,0.9-0.8,1.5c0,0.5,0.2,0.9,0.3,1.4
					c-0.1,0.2-0.3,0.3-0.4,0.5C551.6,61.3,551.5,62.4,552,63z"/>
				<path class="st3" d="M498.3,130.2c-0.1-0.6-0.5-0.8-1-1c-0.4-0.2-0.8-0.5-1.4-0.3c-0.7,0.3-0.8,1.4-0.4,2c0,0,0,0,0.1,0.1
					c0,0.1,0,0.1,0,0.2c0,0.2,0.5,0.9,0.8,0.8c0,0.5,0.3,1,0.7,1.1c0.5,0.1,1.1-0.2,1.3-0.6c0.1-0.4,0-0.9-0.4-1.3
					C498.3,130.9,498.4,130.4,498.3,130.2z"/>
				<path class="st3" d="M553.4,83.3c-0.1,0.2-0.1,0.6,0.1,0.7c0.3,0.1,0.6,0.1,0.7-0.1c0.1-0.2,0.1-0.7-0.1-0.9
					C554,82.9,553.6,83.1,553.4,83.3z"/>
				<path class="st3" d="M524.6,107.9c0-0.5-0.3-1-0.9-1c-0.3,0-0.8,0.1-1,0.3c-0.5,0.7-0.2,1.2,0.5,1.8
					C523.9,108.8,524.6,108.7,524.6,107.9z"/>
				<path class="st3" d="M530.1,116.3c0.2,0.9,1.3,1.4,2.3,1.2c1.1-0.3,1.5-1.1,1.2-2.4c-0.3-1.1-1-1.6-2-1.5c0-0.3-0.1-0.6-0.5-0.6
					c-0.3-0.1-1,0.2-1.1,0.4c-0.1,0.3,0.1,0.7,0.2,1C530,114.9,529.9,115.5,530.1,116.3z"/>
				<path class="st3" d="M523.8,118.1c0.6,0.6,1.2,0.5,1.8,0c0.5,0.3,0.9,0.5,1.3,0.6c0.3,0.7,0.7,1.1,1.2,1c0.6-0.2,1.2-1.2,1-1.9
					c-0.1-0.3-0.4-0.5-0.7-0.6c0-0.2,0.1-0.4,0.1-0.6c0.1-0.1,0.2-0.1,0.4-0.2c0.6-0.1,0.7-0.5,0.8-1.1c0-0.5-0.2-0.8-0.6-1
					c-1-0.6-1.5-0.4-2,0.6c-0.4,0.8-0.8,1.6-1.2,2.3C524.2,116.7,524,116.8,523.8,118.1z"/>
				<path class="st3" d="M527.8,112.9c0.7-0.2,1.5-1.6,1.3-2.3c-0.2-0.7-1.2-1.2-2-1c-0.8,0.2-1.4,1.3-1.2,2
					C526.1,112.4,527.1,113.1,527.8,112.9z"/>
				<path class="st3" d="M531.8,107.4c-0.5,0.1-0.8,0.6-0.7,1.2c0.2,0.7,0.9,1.3,1.6,1.1c0.6-0.1,1.1-0.8,0.9-1.4
					C533.5,107.7,532.5,107.2,531.8,107.4z"/>
				<path class="st3" d="M501.2,126.2c0.2,0.8,1.5,1.6,2.5,1.2c1-0.5,1.4-1.3,1.3-2c-0.1-0.8-1.3-1.2-2.4-1.2
					C501.9,124.2,501,125.4,501.2,126.2z"/>
				<path class="st3" d="M500.2,128.1c-0.4,0.6-0.1,1.2,0.8,1.5c0.1,0,0.2,0,0.3,0c0.4,0.2,0.6,0.5,0.2,0.9
					c-0.1,0.1-0.3,0.2-0.5,0.3c-0.5,0.6-0.6,1.4-0.3,2.1c0.3,0.6,0.6,0.9,1.2,0.9c0.6-0.1,1.2-0.3,1.8-0.4c0.4-0.3,0.8-0.7,1-1.2
					c0.5,0.2,0.9,0.4,1.3,0.4c0.1,0,0.3,0,0.4,0c0.2-0.1,0.4-0.1,0.7-0.2c0.2-0.1,0.3-0.2,0.4-0.4c0,0.1,0,0.2,0,0.3
					c0.3-0.1,0.6-0.2,0.9-0.3c0-0.2-0.2-0.5-0.6-0.5c-0.1,0-0.2,0.1-0.2,0.1c0-0.3,0-0.5-0.2-0.9c-0.4-1-1.4-1.3-2.3-0.7
					c-0.3,0.2-0.5,0.4-1,0.9c-0.2-0.5-0.5-0.8-0.5-1.1c0.1-1-0.4-1.4-1.2-1.6c-0.2-0.1-0.4-0.2-0.6-0.3
					C501,127.6,500.4,127.7,500.2,128.1z"/>
				<path class="st3" d="M499.3,124.6c-0.6,0.1-0.9,0.5-0.7,1.1c0.2,0.6,0.7,1,1.3,0.8c0.5-0.1,0.9-0.7,0.8-1.2
					C500.5,124.8,500,124.4,499.3,124.6z"/>
				<path class="st3" d="M506.3,125.9c-0.5,0.1-0.6,0.4-0.5,0.9c0.2,0.5,0.5,0.8,1,0.7s0.9-0.8,0.8-1.2
					C507.5,125.9,506.9,125.7,506.3,125.9z"/>
				<path class="st3" d="M456.3,136l-0.1-0.1c-0.5-0.4-1.4-0.3-2,0.1H456.3z"/>
				<path class="st3" d="M500.1,134.4c-0.5-0.3-1.1-0.2-1.8,0.3C498.9,134.6,499.5,134.5,500.1,134.4z"/>
				<path class="st3" d="M505.3,115.2c-0.6,0.2-0.8,0.7-0.6,1.4c0.2,0.7,0.7,1,1.1,0.9c0.5-0.2,1.1-1.2,0.9-1.6
					C506.5,115.3,505.9,115,505.3,115.2z"/>
				<path class="st3" d="M461.5,136h2.1c0-0.1-0.1-0.1-0.2-0.1C462.7,135.3,461.9,135.4,461.5,136z"/>
				<path class="st3" d="M497.4,134.9c-0.4-0.1-0.8-0.2-1.2-0.1c-0.3,0-0.7,0.2-0.9,0.5C496,135.1,496.7,135,497.4,134.9z"/>
				<path class="st3" d="M459.8,131.6c-0.2-0.4-0.4-0.6-0.8-0.6c-0.1-0.2-0.3-0.4-0.5-0.5c-0.5-0.2-1.4,0.1-1.6,0.6v0.1
					c-0.3-0.5-0.6-0.8-1.3-0.5c-0.5,0.3-0.8,0.7-0.7,1.3c0,0.2,0.2,0.5,0.4,0.6c0.5,0.2,1.1,0.2,1.6,0.3c0.7,1.2,1.6,1.7,2.3,1.3
					C459.9,133.8,460.2,132.4,459.8,131.6z"/>
				<path class="st3" d="M489.5,135.8c0.4,0,0.9-0.1,1.3-0.1c-0.1,0-0.2-0.1-0.3-0.1C490.1,135.5,489.7,135.6,489.5,135.8z"/>
				<path class="st3" d="M466.3,135.9c-0.1,0-0.1-0.1-0.2-0.1c-0.7-0.3-1.5-0.2-1.9,0.1h2.4C466.5,136,466.4,135.9,466.3,135.9z"/>
				<path class="st3" d="M525.6,123.8c0.5-0.3,1-0.6,1.5-1c-0.1,0-0.2,0-0.2,0C526.3,123,525.8,123.4,525.6,123.8z"/>
				<path class="st3" d="M519,122.9c-0.5-0.2-1.8,0.7-2,1.4c-0.1,0.5,0.3,1.3,0.8,1.5c0.6,0.2,1.2,0.1,1.6-0.2
					c0,0.1,0.1,0.3,0.2,0.4c0.2,0.3,0.4,0.5,0.5,0.8c0,0.1,0.1,0.1,0.1,0.2c0.7-0.4,1.4-0.8,2.1-1.2c-0.3-0.4-0.7-0.9-1.1-1.3
					c-0.3-0.3-0.8-0.4-1.2-0.1C519.9,123.7,519.6,123,519,122.9z"/>
				<path class="st3" d="M521.4,118.1c-0.8,0.3-0.8,1-0.9,1.7c1.1,0.7,1.6,0.8,2,0.3c0.4-0.4,0.5-0.8,0.2-1.3
					C522.6,118.3,522,117.9,521.4,118.1z"/>
				<path class="st3" d="M550.2,93.3c0.1,0.4,0.8,0.8,1.4,0.8c-0.4,0.2-0.6,0.6-0.5,1.1c0,0.2,0.1,0.3,0.2,0.4
					c0.3-0.6,0.6-1.1,0.9-1.7h-0.1c0.3-0.3,0.5-1,0.4-1.5s-0.6-0.7-1.2-0.4C550.5,92.4,550.1,92.9,550.2,93.3z"/>
				<path class="st3" d="M518.3,118.1c0.3,0,0.8-0.3,0.9-0.5c0.1-0.4,0.1-1-0.2-1.3c-0.5-0.6-1.1-0.1-1.7,0.2
					C517.4,117.4,517.5,118.1,518.3,118.1z"/>
				<path class="st3" d="M552,86.5c-0.4,0.3-0.6,1.1-0.3,1.5c0.6,0.9,1.4,1.3,2,0.9c0.6-0.4,0.7-1.7,0.3-2.2
					C553.7,86.3,552.5,86.2,552,86.5z"/>
				<path class="st3" d="M510.2,121.1c-0.9-0.3-2.3,0.3-2.6,1.2c-0.4,1.1,0.1,2.3,1,2.5c0.9,0.3,2.6-0.5,3-1.3
					C511.9,122.7,511.2,121.5,510.2,121.1z"/>
				<path class="st3" d="M511.2,125.6c0.3,0.3,0.6,0.4,1,0.4c0.6,0,0.9-0.6,0.8-1.1s-0.6-0.7-1.1-0.7
					C511.4,124.2,510.9,125.2,511.2,125.6z"/>
				<path class="st3" d="M513,113.6c-0.7,0.2-1.4,1.3-1.2,1.9c0.2,0.5,1.3,0.9,2.2,0.7c0.5-0.2,0.9-1,0.7-1.5
					C514.4,113.9,513.6,113.4,513,113.6z"/>
				<path class="st3" d="M516.2,125.6c-0.2-0.1-0.4-0.1-0.6-0.1c0.1-0.5-0.2-1.2-0.6-1.3c-0.5-0.2-1.5,0.2-1.6,0.6
					c-0.2,0.5,0.2,1.3,0.7,1.5c0.1,0,0.2,0,0.3,0.1c0.1,0.2,0.3,0.4,0.6,0.4c0.4,0,1-0.2,1.2-0.4C516.6,126,516.3,125.7,516.2,125.6
					z"/>
				<path class="st3" d="M516.2,129c0.4-0.2,0.8-0.4,1.2-0.6c-0.1-0.1-0.3-0.1-0.4-0.2C516.6,128.4,516.3,128.7,516.2,129z"/>
				<path class="st3" d="M514.7,117.9c-0.9-0.3-1.9,0.2-2.2,1.2c-0.2,0.6-0.2,1-0.1,1.5c-0.2,0.2-0.4,0.4-0.4,0.6
					c0,0.3,0.9,0.9,1.4,0.7c0.1,0,0.1-0.1,0.2-0.1c0.1,0,0.1,0.1,0.2,0.1c1,0.4,2.3-0.3,2.6-1.4
					C516.6,119.6,515.7,118.3,514.7,117.9z"/>
				<path class="st3" d="M506.2,118.8c-0.2,0.1-0.6,0.3-0.5,0.5c0.1,0.2,0.4,0.4,0.6,0.4c0.2,0,0.7-0.4,0.6-0.6
					C506.8,118.9,506.3,118.7,506.2,118.8z"/>
				<path class="st3" d="M417.6,133.7c-0.8-0.5-1.9-0.2-2.4,0.6c-0.3,0.5-0.3,1.1,0.1,1.7h3.2C418.7,135.1,418.4,134.2,417.6,133.7z
					"/>
				<path class="st3" d="M425.1,133.8c0.5,0.4,1.2-0.3,1.5-0.5c0.4-0.3,0.2-0.9-0.2-1.2c-0.5-0.4-1-0.3-1.2,0.2
					C425.1,132.6,424.6,133.4,425.1,133.8z"/>
				<path class="st3" d="M415.1,134.1c0.1-0.1,0-0.3-0.1-0.4c-0.1-0.1-0.3-0.1-0.4,0c-0.1,0.1-0.1,0.3,0,0.5S415,134.2,415.1,134.1z
					"/>
				<path class="st3" d="M413.8,129.5c-0.1-0.7,0-1.4-0.8-1.6c-0.5-0.1-1,0.1-1.2,0.6c-0.1,0.3-0.1,0.8,0.1,1
					C412.4,130.2,413.1,130,413.8,129.5z"/>
				<path class="st3" d="M426.3,117.1c0.2-0.3-0.1-0.7-0.3-0.8c-0.2-0.1-0.5-0.2-0.8,0.1c-0.3,0.3-0.2,0.7,0.2,0.9
					C425.8,117.6,426.2,117.4,426.3,117.1z"/>
				<path class="st3" d="M407.2,135.5c0.3-0.4,0.2-1.2-0.2-1.6c-0.6-0.5-1.6-0.4-2,0.1c0,0.1-0.1,0.1-0.1,0.2
					c-0.7-0.3-1.6-0.2-2.1,0.3c-0.4,0.4-0.6,1-0.7,1.5h4.5C406.9,135.9,407.1,135.7,407.2,135.5z"/>
				<path class="st3" d="M402.6,121.2c0.3-0.2,0.1-0.7,0-0.7c-0.2-0.1-0.5-0.1-0.7-0.1c-0.1,0-0.2,0.5-0.1,0.6
					C402,121.1,402.3,121.4,402.6,121.2z"/>
				<path class="st3" d="M420.8,122.9c-0.3-0.3-0.9-0.4-1.1,0.1c-0.1,0.3-0.1,1,0.1,1.1c0.3,0.2,0.8,0.1,1.1,0.1
					C421.4,123.5,421.1,123.1,420.8,122.9z"/>
				<path class="st3" d="M420.3,128.3c-0.1,0.1-0.4,0.7-0.2,0.9c0.2,0.2,0.8,0,0.9-0.2s0.2-0.5,0-0.7S420.5,128.2,420.3,128.3z"/>
				<path class="st3" d="M422.4,126.6c0-0.1-0.1-0.3,0-0.4c0-0.6-0.3-0.9-0.8-1c-0.5-0.2-0.8,0-1.1,0.4c-0.8,0.8-0.8,1.4,0.1,2.1
					c0.7,0.6,1.3,1.2,1.9,1.8c-1,1.3-1,1.5,0.3,2.1c0.7-0.4,0.8-1,0.5-1.7C424.7,128.5,424.4,127.4,422.4,126.6z"/>
				<path class="st3" d="M423.9,121.3c0.2,0.1,0.7-0.1,0.7-0.2c0.1-0.2,0.3-0.6,0.1-0.8c-0.2-0.1-0.6,0-0.7,0.1
					C423.8,120.6,423.7,121.2,423.9,121.3z"/>
				<path class="st3" d="M424.7,112.5c-0.1-0.1-0.5,0-0.6,0.1c-0.1,0.2-0.1,0.6,0,0.7c0.1,0.1,0.5,0.4,0.8,0
					C425.3,113,424.8,112.7,424.7,112.5z"/>
				<path class="st3" d="M396.3,117c-0.1-0.8-0.6-1.1-1.3-1.1c-0.5,0-1.6-0.4-2.1,0.3c-0.4,0.7,0.2,1,0.3,1.3c0.3,1,1.5,1.6,2.2,1.2
					C396.2,118.3,396.4,117.7,396.3,117z"/>
				<path class="st3" d="M380.9,132.4c-0.7,0.7-0.5,1.9,0.5,2.8c0.8,0.7,1.7,0.7,2.4-0.1c0.7-0.8,0.6-2.3-0.3-3
					C382.9,131.6,381.5,131.7,380.9,132.4z"/>
				<path class="st3" d="M378.2,121.4c0.3,0.3,0.7,0.2,0.9-0.1c0.2-0.3,0-0.7-0.2-0.8c-0.2-0.1-0.5-0.3-0.8,0
					C377.8,120.8,377.8,121.2,378.2,121.4z"/>
				<path class="st3" d="M401.1,127.5c0.2-0.3-0.2-1.2-0.4-1.5c-0.2-0.4-0.9-0.2-1.2,0.2c-0.3,0.4-0.3,0.9,0.1,1.1
					C399.9,127.5,400.9,127.9,401.1,127.5z"/>
				<path class="st3" d="M355.8,135.2c-0.2,0.2-0.3,0.5-0.4,0.8h2.6c0-0.2-0.1-0.4-0.2-0.6C357.3,134.9,356.2,134.8,355.8,135.2z"/>
				<path class="st3" d="M377.4,116.5c-0.1,0.2-0.2,0.5-0.1,0.7c0.1,0.1,0.5,0.4,0.8,0.2c0.3-0.2-0.1-0.7-0.2-0.9
					C377.9,116.4,377.5,116.4,377.4,116.5z"/>
				<path class="st3" d="M386.1,126.5c0.7-0.7,0.8-2,0.2-2.5c-0.5-0.4-1.6-0.2-2.1,0.4s-0.3,1.5,0.3,2S385.6,127,386.1,126.5z"/>
				<path class="st3" d="M398.3,135.8c-0.5-0.5-1.8-0.4-2.4,0.1c0,0,0,0.1-0.1,0.1h2.6C398.4,135.9,398.3,135.8,398.3,135.8z"/>
				<path class="st3" d="M399,134.5c0.3,0.3,1.1-0.3,1.3-0.5c0.1-0.2,0-0.7-0.2-1c-0.3-0.3-0.7-0.4-0.9,0.1
					C399,133.4,398.7,134.3,399,134.5z"/>
				<path class="st3" d="M419.6,120.2c-0.1,0.1-0.1,0.5,0,0.6c0.2,0.1,0.5,0,0.7-0.1c0.1-0.1,0.3-0.5,0.1-0.7
					C420.2,119.7,419.8,120,419.6,120.2z"/>
				<path class="st3" d="M394.1,123.7c-0.4,0.4-0.4,1.2-0.1,1.6c0.4,0.3,1.1,0.3,1.4,0c0.4-0.4,0.4-1.2,0-1.6
					C395.2,123.3,394.4,123.3,394.1,123.7z"/>
				<path class="st3" d="M391.6,133.7c-0.3,0.4-0.2,1.2,0.4,1.7c0.3-0.1,0.8-0.1,1.2-0.3c0.5-0.4,0.3-1.2-0.2-1.6
					S391.9,133.2,391.6,133.7z"/>
				<path class="st3" d="M463.2,125.3c0.2,0.1,0.4,0,0.4-0.1c0.1-0.1-0.1-0.3-0.1-0.4c-0.1,0-0.3-0.1-0.4,0.1
					C463.1,125,463.1,125.2,463.2,125.3z"/>
				<path class="st3" d="M549,59.8c0.1-0.4-0.3-1-0.7-1.1c-0.5-0.1-1.3,0.5-1,1.3C547.9,60.8,548.9,60.3,549,59.8z"/>
				<path class="st3" d="M491.8,110.5c-0.6-0.4-1.2-0.4-1.7,0.2c-0.5,0.7-0.3,1.7,0.4,2.3s1.2,0.2,1.6,0.6s0.8,0.3,1.3-0.1
					s1.3-0.9,0.8-1.6c-0.5-0.7-1.1-0.5-1.3-0.3c-0.2,0.2-0.8,0.1-0.6-0.1C492.5,111.3,492.4,110.9,491.8,110.5z"/>
				<path class="st3" d="M507.2,117.4c-0.1,0.7,0.5,1,1.2,1.3c0.5-0.4,1.2-0.8,0.9-1.6c0-0.1-0.1-0.1-0.1-0.2
					c0.6-0.2,1.2-0.8,1.4-1.4c0.2-0.6-0.2-1.1-0.8-1.3c-0.9-0.3-1.8,0-2,0.7c-0.2,0.6-0.1,1.1,0.2,1.5
					C507.5,116.6,507.3,117,507.2,117.4z"/>
				<path class="st3" d="M462.4,128c-0.3,1,0.1,1.9,1,2.2c0.7,0.2,1.5,0,1.8-0.5c0.5,0.1,1.1-0.1,1.3-0.5c0.3-0.5,0.2-1-0.3-1.4
					c-0.5-0.3-1-0.3-1.3-0.1c-0.2-0.3-0.5-0.6-0.9-0.7C463.5,126.8,462.6,127.3,462.4,128z"/>
				<path class="st3" d="M464.2,113.4c0.6,0.1,1.3-0.6,1-1.3c-0.1-0.3-0.9-0.3-1.4-0.4c-0.1,0-0.4-0.1-0.6,0.3
					C463,112.4,463.6,113.3,464.2,113.4z"/>
				<path class="st3" d="M494,104.9c0-0.2,0.1-0.5-0.2-0.7c-0.3-0.1-0.5,0.1-0.6,0.2c-0.1,0.2-0.2,0.7,0.1,0.9
					C493.7,105.4,494,105,494,104.9z"/>
				<path class="st3" d="M537.4,79.1c0.4-0.4,0-2.1-0.6-2.3c-0.6-0.2-1.4,1.1-1.1,1.7S536.9,79.4,537.4,79.1z"/>
				<path class="st3" d="M546.9,67c-0.3,0.2-0.2,0.5-0.2,0.6c0.1,0.2,0.4,0.6,0.7,0.5c0.3-0.1,0.2-0.6,0.1-0.7
					C547.4,67.1,547.2,66.8,546.9,67z"/>
				<path class="st3" d="M527,95.6c1.7,0.3,1.1,1.3,2.2,1.9c0.2,0.1,0.5,0.1,0.6,0.1c1.3,0,1.9-1.1,1.3-2.2
					c-0.4-0.7-0.9-1.3-1.4-1.8c-0.6-0.6-1.9-0.5-2.5,0C526.7,94,526.2,95,527,95.6z"/>
				<path class="st3" d="M527.6,89.4c0.1,0,0.3-0.2,0.2-0.4c-0.1-0.2-0.3-0.2-0.4-0.2c-0.1,0-0.2,0.3-0.1,0.4
					C527.3,89.3,527.5,89.4,527.6,89.4z"/>
				<path class="st3" d="M534.4,104.9c-0.1,0.6,0.1,1,0.6,1.2c0.8,0.4,1.2-0.3,1.5-0.9c0.4,0.1,0.7,0.2,1.1,0.4
					c-0.1,0.5-0.3,1-0.4,1.4c0.3,0.3,0.5,0.6,0.8,0.8c0.5,0.3,1.7,0.3,2.1,0c0.4-0.4,0.4-1.3-0.1-2c-0.2-0.2-0.3-0.4-0.5-0.7
					c0.3-0.7,0.6-1.3,0.5-2c0.2-0.1,0.3-0.1,0.5-0.2c0.7-0.4,1-1.9,0.5-2.5s-2-0.9-2.8,0c-0.5,0.5-0.6,1-0.6,1.5
					c-0.1,0-0.2,0-0.3,0.1c-1.1,0.3-1.3,1.1-1.3,2.1C535.3,104.3,534.6,104.1,534.4,104.9z"/>
				<path class="st3" d="M438.5,135.6c-0.5-0.4-1-0.7-1.7-0.4c-0.6,0.3-1,0.5-1.3,0.8h3.3C438.8,135.8,438.7,135.7,438.5,135.6z"/>
				<path class="st3" d="M431.8,119.5c-0.4,0.6-0.1,1.5,0.5,2c0.6,0.4,1.2,0.4,1.6-0.2c0.6-0.8,0.5-2.1-0.1-2.5
					C433.3,118.5,432.2,118.9,431.8,119.5z"/>
				<path class="st3" d="M428.5,131.9c-0.4,0.4-0.3,0.8,0.1,1.1c0.3,0.2,1.2,0.5,1.4,0.2s0-1.1-0.2-1.4
					C429.4,131.4,428.9,131.5,428.5,131.9z"/>
				<path class="st3" d="M429.6,127.9c-0.6,0.8-0.2,1.9,0.9,2.7c0.9,0.6,1.8,0.4,2.4-0.4c0.6-0.9,0.3-2.3-0.6-2.9
					C431.5,126.8,430.1,127.1,429.6,127.9z"/>
				<path class="st3" d="M432.7,132.5c-0.5,0.7-0.3,1.6,0.6,2.2c0.6,0.4,1.3,0.2,1.9-0.7c0.5-0.7,0.4-1.4-0.1-1.8
					C434.6,132,433,132.1,432.7,132.5z"/>
				<path class="st3" d="M435.3,111.8c-0.4-0.4-1.1-0.3-1.4,0.1c-0.3,0.5-0.3,1,0.2,1.4c0.4,0.4,1.1,0.3,1.4-0.1
					C435.8,112.8,435.7,112.2,435.3,111.8z"/>
				<path class="st3" d="M444.9,129.4c-0.4,0.5-0.1,1.5,0.6,2c0.9,0.6,1.5,0.6,2-0.1s0.3-1.9-0.3-2.3
					C446.6,128.6,445.4,128.8,444.9,129.4z"/>
				<path class="st3" d="M447.8,126.3c-0.1,0.3-0.3,1.2,0,1.4c0.4,0.2,1.1-0.4,1.2-0.7c0.1-0.2-0.1-0.7-0.4-0.9
					C448.4,125.8,447.9,125.8,447.8,126.3z"/>
				<path class="st3" d="M419,134.3c-0.3,0.4-0.4,0.9,0.1,1.1c0.3,0.2,1.3,0.5,1.6,0.2c0.3-0.3-0.3-1.2-0.6-1.5
					C419.8,133.8,419.3,133.8,419,134.3z"/>
				<path class="st3" d="M452,135.4c0-0.1,0-0.2,0-0.4c0-0.1,0-0.2,0-0.4c-0.1-0.1-0.2-0.1-0.4-0.2c-0.2-0.2-0.4-0.4-0.6-0.5
					c-0.6-0.2-1.1,0.1-1.3,0.7c-0.2,0.6,0,1.1,0.6,1.3h0.1h0.7C451.6,135.9,451.9,135.7,452,135.4z"/>
				<path class="st3" d="M449.6,114c0.3-0.3,0-0.7-0.1-0.7c-0.2-0.1-0.5-0.1-0.7,0c-0.1,0-0.1,0.5,0,0.6
					C449,114,449.4,114.3,449.6,114z"/>
				<path class="st3" d="M447.2,119.4c-0.2,0.4-0.2,0.9,0.2,1.1c0.4,0.1,1.4,0.3,1.6,0s-0.3-1.1-0.6-1.4
					C448.1,118.7,447.4,118.9,447.2,119.4z"/>
				<path class="st3" d="M486.2,120.1c0-0.3-0.4-0.4-0.6-0.4c-0.2,0-0.5,0.3-0.5,0.6c0.1,0.3,0.3,0.5,0.5,0.5
					C485.8,120.7,486.1,120.4,486.2,120.1z"/>
				<path class="st3" d="M468.9,118.7c0-0.1-0.1-0.1-0.1-0.1c-0.2-0.2-0.6,0-0.7,0.1c-0.1,0.1-0.3,0.7-0.1,0.9
					c0.2,0.1,0.5,0,0.7-0.1c0,0.6,0.3,1.1,0.7,1.2c0.6,0.2,1.7-0.2,1.8-0.7c0.2-0.6-0.4-1.5-1.3-1.8
					C469.5,118.1,469.1,118.3,468.9,118.7z"/>
				<path class="st3" d="M467.3,132.7c-0.4,0-0.9,0-1,0.3c-0.1,0.3,0.1,0.8,0.3,1c0.2,0.1,1.1,0.1,1.2-0.1c0.1-0.1,0-0.3-0.1-0.5
					c0.1,0.1,0.2,0.2,0.4,0.2c1,0.4,2.5-0.1,2.9-1.2c0.1-0.2,0.1-0.3,0.1-0.5c0.3-0.5,0.1-1.4-0.4-1.8c-0.1-0.1-0.3-0.1-0.5-0.2
					c-0.2-0.1-0.3-0.3-0.5-0.4c-1-0.4-2.1,0.2-2.6,1.6C467,131.7,467.1,132.2,467.3,132.7z"/>
				<path class="st3" d="M475.2,132.5c-0.6-0.1-0.9,0.2-1.1,0.7c-0.2,0.6,0.1,1.2,0.7,1.4c0.5,0.1,1.1-0.2,1.2-0.7
					C476.1,133.3,475.7,132.6,475.2,132.5z"/>
				<path class="st3" d="M471.3,110.4c-0.6-0.2-0.9,0.1-1.1,0.6c-0.2,0.4,0,0.8,0.5,1s1,0.1,1.2-0.4
					C472.1,111.1,471.8,110.5,471.3,110.4z"/>
				<path class="st3" d="M470.5,136h1c0,0,0,0-0.1,0C471.1,135.8,470.8,135.9,470.5,136z"/>
				<path class="st3" d="M477.1,135.9c-0.6-0.4-1.6-0.3-2.3,0.1h2.4C477.2,136,477.2,135.9,477.1,135.9z"/>
				<path class="st3" d="M472.3,114c-0.6-0.2-1.5,0.3-1.6,0.9c-0.2,0.6,0.2,1.1,0.8,1.3c0.6,0.2,1.3-0.1,1.4-0.6
					C473.1,115.2,472.7,114.2,472.3,114z"/>
				<path class="st3" d="M457.7,125.2c-0.4,0.6-0.4,1.2,0,1.5c0.6,0.5,1.8,0.4,2.2-0.2c0.4-0.5,0.3-1.3-0.2-1.7
					C459.2,124.4,458.2,124.6,457.7,125.2z"/>
				<path class="st3" d="M457.8,122.4c-0.1-0.1-0.5,0.1-0.6,0.3c-0.1,0.2,0.2,0.5,0.4,0.6c0.1,0.1,0.6,0.1,0.7-0.2
					C458.5,122.8,458,122.5,457.8,122.4z"/>
				<path class="st3" d="M461.7,132.7c-0.5-0.2-1.1,0.1-1.1,0.6c0,0.3-0.1,1.2,0.5,1.2c0.6,0.1,1-0.6,1.2-0.9
					C462.5,133.2,462.1,132.9,461.7,132.7z"/>
				<path class="st3" d="M460.3,135.1c-0.4-0.3-1.1,0.2-1.1,0.7c0,0.1,0,0.1,0,0.2h1.6C460.7,135.7,460.5,135.2,460.3,135.1z"/>
				<path class="st3" d="M466.4,110.7c-0.1,0.1-0.1,0.5,0.1,0.6c0.2,0.1,0.5-0.1,0.7-0.2c0.1-0.1,0.2-0.6,0-0.8
					C467,110.1,466.5,110.6,466.4,110.7z"/>
				<path class="st3" d="M479.9,105.8c-0.2,0-0.5,0-0.6,0.3c-0.1,0.3,0.2,0.5,0.3,0.5c0.2,0,0.7,0.1,0.8-0.3
					C480.5,105.9,480,105.8,479.9,105.8z"/>
				<path class="st3" d="M478.1,131.2c0,0.8,0.6,1,1.2,1c0.6-0.6,0.7-1.2,0.1-1.9C478.7,130.3,478.1,130.4,478.1,131.2z"/>
				<path class="st3" d="M479,133c-0.1-0.1-0.5,0-0.6,0.1c-0.1,0.2-0.1,0.6,0,0.7c0.1,0.1,0.5,0.4,0.8,0
					C479.6,133.5,479.2,133.2,479,133z"/>
				<path class="st3" d="M482.1,120.7c-0.5-0.1-1.2,0.3-1.4,0.8c-0.3,1.1-0.1,1.9,0.6,2.1c0.6,0.2,1.7-0.5,1.9-1.2
					C483.4,121.8,482.7,120.8,482.1,120.7z"/>
				<path class="st3" d="M479.5,134.2c-0.2,0.5,0.1,1.1,0.6,1.3c0.6,0.2,1.1,0,1.3-0.5c0.2-0.6,0-1.2-0.5-1.4
					C480.4,133.2,479.7,133.6,479.5,134.2z"/>
				<path class="st3" d="M481.3,129.2c0.5,0.1,1.4-0.6,1.5-1.1c0.1-0.4-0.6-1.2-1.1-1.3c-0.5-0.1-0.9,0.3-0.9,0.8
					C480.6,128.5,480.9,129.1,481.3,129.2z"/>
				<path class="st3" d="M477.9,103c-0.3,0.6,0,1.6,0.6,1.7c0.5,0.1,1.6-1.3,1.4-1.9C479.7,102.1,478.2,102.3,477.9,103z"/>
				<path class="st3" d="M480.2,116.5c-0.7-0.2-1.6,0.5-1.9,1.4c-0.2,0.8,0.2,1.4,1.2,1.7c0.6,0.2,1.4-0.3,1.6-0.8
					C481.4,118.1,480.8,116.6,480.2,116.5z"/>
				<path class="st3" d="M476.7,121.2c-0.4,0.5-0.2,0.9,0.2,1.1c0.3,0.2,1.2,0.3,1.4,0.1c0.2-0.3-0.2-1-0.4-1.3
					C477.6,120.6,477,120.7,476.7,121.2z"/>
				<path class="st3" d="M476.7,112.8c-0.6-0.2-2,0.3-2.2,0.8c-0.3,0.8,0.1,1.4,1.1,1.7c0.8,0.3,1.4-0.1,1.6-1.1
					C477.4,113.6,477.2,113,476.7,112.8z"/>
				<path class="st3" d="M457.1,118.8c-0.9-0.5-1.7-0.4-2.2,0.5c-0.5,0.8-0.2,1.8,0.6,2.4c0.6,0.4,1.8,0.1,2.3-0.7
					S458,119.3,457.1,118.8z"/>
				<path class="st3" d="M473.4,119.7c0.1,0.3,0.5,0.6,0.8,0.6c0.2,0,0.6-0.3,0.7-0.5c0.3-0.5,0.5-1,0.7-1.5
					c0.2-0.5-0.1-0.7-0.6-0.9c-0.1,0.1-0.4,0.1-0.4,0.2c-0.2,0.5-0.7,0.7-1.1,1C473.3,118.8,473.2,119.4,473.4,119.7z"/>
				<path class="st3" d="M467.6,124.8c-0.2,0.4-0.3,0.9,0.2,1.1c0.3,0.1,0.9,0.2,1.3,0.1c0.1,0.7,0.7,1.5,1.6,1.8
					c0.9,0.3,1.6-0.1,1.9-0.9c0.4-1.1,0-2-1.2-2.4c-0.8-0.3-1.8,0.1-2.2,0.8c-0.2-0.3-0.5-0.6-0.6-0.7
					C468.3,124.2,467.9,124.3,467.6,124.8z"/>
				<path class="st3" d="M454.7,123.2c0.2,0.1,0.6,0,0.7-0.3c0.1-0.3-0.1-0.6-0.3-0.7c-0.2-0.1-0.8-0.1-0.9,0.2
					C454.1,122.7,454.5,123.1,454.7,123.2z"/>
				<path class="st3" d="M390.2,128.8c-0.5-0.2-1,0.1-1.3,0.6c-0.3,0.5-0.2,1.1,0.3,1.4c0.7,0.5,1.8,0,2-0.3
					C391.4,130.2,391,129,390.2,128.8z"/>
				<path class="st3" d="M387.3,117.1c-0.3,0.5-0.4,1,0,1.4c0.3,0.4,1,0.4,1.4,0c0.4-0.4,0.4-1,0-1.4
					C388.3,116.8,387.6,116.7,387.3,117.1z"/>
				<path class="st3" d="M483.2,102.8c-0.5,0.8-0.4,1.2,0.4,1.9c0,0.7-0.1,1.4,0,2.1c0.1,0.6,0.9,0.9,1.3,0.4c0.4-0.6,1.1-1.2,1-2.1
					c-0.2-0.2-0.5-0.5-0.8-0.7c0.1-1-0.2-1.9-0.8-2C483.9,102.2,483.5,102.3,483.2,102.8z"/>
				<path class="st3" d="M389.6,136c0.3-0.4,0.2-1.2-0.2-1.5c-0.5-0.4-1.2-0.3-1.5,0.1c-0.3,0.4-0.3,1.1,0.1,1.5L389.6,136z"/>
				<path class="st3" d="M558.8,49.8c0.1,0.2,0.3,0.4,0.5,0.5c-0.1-0.6-0.2-1.2-0.3-1.8C558.7,48.9,558.6,49.4,558.8,49.8z"/>
				<path class="st3" d="M376.3,124.3c-0.2,0.1-0.4,0.7-0.2,0.9c0.2,0.2,0.7,0,0.8-0.1c0.1-0.2,0.4-0.6,0.2-0.7
					C376.8,124.1,376.5,124.1,376.3,124.3z"/>
				<path class="st3" d="M363.2,130.7c-0.2,0.3-0.2,0.8-0.1,1c0.4,0.7,1.1,0.6,1.9,0.2c0-0.7,0.2-1.4-0.5-1.7
					C364,130.1,363.5,130.2,363.2,130.7z"/>
				<path class="st3" d="M376.1,136h1C376.8,135.7,376.4,135.7,376.1,136z"/>
				<path class="st3" d="M374,130.2c0-0.1,0-0.3,0-0.4c0.1-0.6-0.2-0.9-0.7-1.1s-0.8-0.1-1.2,0.2c-0.9,0.7-1,1.2-0.2,2.1
					c0.6,0.7,1.1,1.4,1.7,2c-1.2,1.1-1.1,1.3,0,2.1c0.8-0.3,0.9-0.9,0.7-1.7C376,132.4,375.8,131.2,374,130.2z"/>
				<path class="st3" d="M372.8,126.2c-0.3-0.3-0.8-0.5-1.1,0c-0.2,0.3-0.2,0.9,0,1.1c0.2,0.2,0.8,0.2,1.1,0.2
					C373.3,127,373.1,126.5,372.8,126.2z"/>
				<path class="st3" d="M537.2,88.2c-0.4,0.2-0.5,0.6-0.4,0.9c-0.2,0.2-0.3,0.5-0.2,0.9c0.2,0.6,0.7,1,1.3,0.8
					c0.5-0.1,1-0.8,0.9-1.3c0-0.1-0.1-0.3-0.2-0.4c0-0.2,0-0.3-0.1-0.5C538.3,88.2,537.6,88,537.2,88.2z"/>
				<path class="st3" d="M441.7,127.4c-0.5-0.3-1.1-0.1-1.3,0.4c-0.3,0.5-0.1,1.3,0.6,1.7c0.3-0.1,0.8-0.2,1.1-0.5
					C442.5,128.5,442.2,127.7,441.7,127.4z"/>
				<path class="st3" d="M441.5,117.6c-0.3,0.5-0.3,1.3,0.1,1.6c0.4,0.3,1.1,0.2,1.4-0.2s0.2-1.3-0.2-1.6
					C442.5,117,441.8,117.2,441.5,117.6z"/>
				<path class="st3" d="M440.8,133.9c-0.4,0.3-0.4,1.4,0.4,1.9c0.5,0.3,0.9,0.2,1.3-0.2c0.4-0.4,0.5-1,0.2-1.4
					C442.2,133.5,441.2,133.5,440.8,133.9z"/>
				<path class="st3" d="M453.2,109.1c-0.6,0.5-1.2,0.8-0.9,1.5c0.2,0.5,0.6,0.8,1.2,0.7c0.5,0,0.8-0.3,0.9-0.8
					C454.5,109.7,454,109.4,453.2,109.1z"/>
				<path class="st3" d="M406.8,116.8c-0.6,0.4-1.3,0.6-1.1,1.4c0.1,0.6,0.5,0.9,1.1,0.9c0.5,0,0.8-0.2,0.9-0.7
					C408,117.6,407.5,117.2,406.8,116.8z"/>
				<path class="st3" d="M451.6,127.1c-0.7,0.9-0.7,2.2,0,2.7c0.8,0.6,2.6,0.4,3.1-0.3c0.6-0.8,0.3-2.1-0.5-2.7
					C453.5,126.2,452.2,126.4,451.6,127.1z"/>
				<path class="st3" d="M409.4,126.9c-0.8-0.6-1.7-0.6-2.3,0.2c-0.6,0.7-0.4,1.7,0.3,2.4c0.6,0.5,1.8,0.3,2.3-0.4
					C410.4,128.5,410.2,127.6,409.4,126.9z"/>
				<path class="st3" d="M409.1,133.4c-0.5,0.5-0.6,1.1-0.2,1.5c0.5,0.5,1.7,0.6,2.2,0.1c0.4-0.4,0.5-1.2,0-1.7
					C410.7,132.8,409.7,132.8,409.1,133.4z"/>
				<path class="st3" d="M438.4,123.1c-0.5-0.1-1,0.2-1.2,0.8c-0.2,0.6-0.1,1.1,0.4,1.4c0.8,0.4,1.8-0.2,1.9-0.6
					C439.6,124.3,439.2,123.2,438.4,123.1z"/>
				<path class="st3" d="M437.2,130.7c0.5,0.3,1.2,0.1,1.5-0.4c0.3-0.4,0.1-1.2-0.4-1.5s-1.2-0.2-1.5,0.3
					C436.5,129.7,436.7,130.4,437.2,130.7z"/>
				<path class="st3" d="M441.5,109.7c-0.5,0-1.7-0.2-2,0.5c-0.3,0.7,0.4,0.9,0.5,1.3c0.4,0.9,1.7,1.4,2.3,0.9
					c0.6-0.5,0.7-1.1,0.6-1.8C442.7,109.9,442.1,109.6,441.5,109.7z"/>
				<path class="st3" d="M499.5,100.2c-0.2,0.9,0.8,1.3,1.2,1.1c0.4-0.2,0.6-0.8,0.4-1.2C500.8,99.6,499.9,99.4,499.5,100.2z"/>
				<path class="st3" d="M517.4,99.1c-0.7,0.2-1,0.6-0.9,1.2c0.1,0.5,0.7,0.9,1.2,0.8c0.6-0.1,1-0.7,0.8-1.3
					C518.4,99.2,518,98.9,517.4,99.1z"/>
				<path class="st3" d="M533.9,80.4c-0.4,0.1-0.4,1.2-0.3,1.3c0.3,0.3,0.7,0.8,1.3,0.7c0.6-0.1,0.4-0.8,0.3-1
					C535,81.1,534.3,80.3,533.9,80.4z"/>
				<path class="st3" d="M537.4,98.1c-0.2,0.7-0.1,1.2,0.6,1.4c0.2,0.1,0.7-0.1,0.8-0.3c0.1-0.3,0.2-0.9,0-1.1
					C538.4,97.5,537.9,97.8,537.4,98.1z"/>
				<path class="st3" d="M525.5,104.8c-0.5,0.2-0.9,0.8-0.7,1.4c0.1,0.5,0.9,0.8,1.4,0.6c0.5-0.2,0.8-0.8,0.5-1.4
					C526.6,104.8,526.1,104.6,525.5,104.8z"/>
				<path class="st3" d="M534,96.4c-0.5,0.4-0.1,1.7,0.4,1.7s1.2-1,0.9-1.5C535,96.3,534.3,96.2,534,96.4z"/>
				<path class="st3" d="M524.3,99c-0.3,0.1-0.5,0.8-0.5,1.1c0,0.5,0.7,0.9,1.1,0.6c0.2-0.2,0.4-0.6,0.4-0.9
					C525.1,99.5,524.7,98.9,524.3,99z"/>
				<path class="st3" d="M539.2,78.7c-0.1,0.2-0.3,0.4-0.1,0.7c0.2,0.3,0.5,0.2,0.6,0.1c0.2-0.1,0.5-0.5,0.3-0.8
					C539.8,78.4,539.3,78.6,539.2,78.7z"/>
				<path class="st3" d="M520.4,108.6c-0.6,0.2-1.1,1.2-0.9,1.9c0.1,0.6,0.9,1.1,1.4,0.9c1.1-0.3,1.8-1.1,1.6-1.8
					C522.4,108.9,521.2,108.3,520.4,108.6z"/>
				<path class="st3" d="M519.2,89.7c-0.6,0.2-1,0.8-0.7,1.5c0.2,0.5,0.8,0.9,1.4,0.7c0.7-0.2,1-0.8,0.9-1.4
					C520.5,89.9,519.8,89.6,519.2,89.7z"/>
				<path class="st3" d="M523.2,101.6c-0.6,0.2-1.5,1.4-1.3,2c0.2,0.8,1,1.2,2,0.9c0.7-0.2,1-0.9,0.7-1.9
					C524.4,101.8,523.8,101.4,523.2,101.6z"/>
				<path class="st3" d="M522.6,83.8c-0.6-0.3-1.3,0.3-1.3,0.7c-0.1,0.4,0.5,1,1.2,0.9c0.2-0.1,0.5-0.4,0.5-0.7
					C523,84.4,522.8,83.9,522.6,83.8z"/>
				<path class="st3" d="M532.1,85.9c-0.9,0.3-1.4,1.4-1.2,2.4c0.2,0.6,1.2,1,1.9,0.7c0.9-0.3,1.2-1,1-1.9
					C533.5,86.2,532.8,85.7,532.1,85.9z"/>
				<path class="st3" d="M551,67.6c0.5,0.7,1.5,0.3,1.6-0.2c0.1-0.4-0.3-1-0.7-1.1C551.4,66.1,551.2,66.4,551,67.6z"/>
				<path class="st3" d="M550.3,72.6c-0.7,0.2-1,0.7-0.9,1.4c0.2,0.8,1.1,1.4,2,1.2c0.9-0.2,0.9-0.8,1.5-0.8
					c0.6-0.1,0.7-0.5,0.8-1.1c0.1-0.6,0.1-1.6-0.8-1.7c-0.9-0.1-1,0.5-1,0.8c0,0.3-0.4,0.7-0.5,0.4
					C551.4,72.5,551.1,72.3,550.3,72.6z"/>
				<path class="st3" d="M555.3,78.8c-0.3,0.1-0.4,0.3-0.2,0.6c0.1,0.3,0.3,0.4,0.6,0.2c0.3-0.1,0.4-0.3,0.3-0.6
					C555.8,78.8,555.6,78.7,555.3,78.8z"/>
				<path class="st3" d="M559.2,66.1c-0.5,0.6-0.1,1.2,0.4,1.7c0.1-0.7,0.1-1.3,0.2-2C559.6,65.9,559.3,65.9,559.2,66.1z"/>
				<path class="st3" d="M555.2,85.2c-0.3,0.2-0.5,0.6-0.7,0.8c0.2,0.4,0.5,0.7,0.8,0.7c0.2-0.5,0.3-1,0.5-1.5
					C555.6,85,555.4,85,555.2,85.2z"/>
				<path class="st3" d="M546.7,89.1c0.4,0.4,1.8,0.3,2.3-0.1c0.4-0.3,0.7-0.7,0.7-1.2c0.5-0.3,0.7-1.3,0.4-1.8
					c-0.2-0.3-0.9-0.7-1.5-0.8c-0.2-0.4-0.6-0.6-1-0.5c-0.6,0.1-1,0.6-1,1.3c0,0.4,0,0.8-0.1,1.2C546.2,88,546.2,88.6,546.7,89.1z"
					/>
				<path class="st3" d="M542.4,94.3c-0.5,0.3-0.5,0.7-0.3,1.2c0.4,0.7,1.3,1.1,1.8,0.8c0.6-0.3,0.9-1.4,0.7-1.9
					C544.3,93.9,543.2,93.8,542.4,94.3z"/>
				<path class="st3" d="M542.5,85.7c-0.3,0.2-0.6,0.7-0.8,1.3c-0.3,0.1-0.5,0.3-0.5,0.8c0.1,0.5,0.7,1.1,1.1,0.8c0,0,0.1,0,0.1-0.1
					c0.4,0.1,0.8,0,1.3-0.3c0.7-0.4,0.8-1.1,0.2-2C543.5,85.6,542.9,85.4,542.5,85.7z"/>
				<path class="st3" d="M476.2,125.4c0.4,0.2,1.3-0.1,1.6-0.5c0.3-0.4,0.1-0.9-0.4-1.2c-0.8-0.4-1.4-0.5-1.7-0.1
					C475.5,124,475.8,125.1,476.2,125.4z"/>
				<path class="st3" d="M542.4,73.6c-0.3,0-0.7,0.1-1.1,0.1c-0.7-0.7-1.6-1-2.1-0.7c-0.4,0.3-0.5,0.7-0.3,1.2
					c0.3,0.9,0.7,1,1.7,0.9c0.6,0.5,1.1,0.9,1.6,1.3c0.6,0.3,1.3-0.1,1.1-0.7C543.2,75,543.2,74.1,542.4,73.6z"/>
				<path class="st3" d="M543.7,98.5c-0.6,0.1-1,0.8-0.8,1.3c0.2,0.6,0.8,0.9,1.4,0.8c0.6-0.1,0.8-0.6,0.7-1.2
					C544.8,98.8,544.3,98.4,543.7,98.5z"/>
				<path class="st3" d="M545,89.9c0,0.1-0.2,0.4-0.1,0.5c0.3,0.5,0.2,1,0.1,1.5c0,0.2,0.4,0.7,0.7,0.8c0.3,0.1,0.8,0,1-0.2
					c0.2-0.1,0.2-0.6,0.1-0.9c-0.2-0.5-0.5-1-0.8-1.5C545.8,89.6,545.4,89.6,545,89.9z"/>
				<path class="st3" d="M492.2,120.6c-0.4,0.1-0.9,0.2-1.3,0.4c-0.7,0.4-1,1.2-0.8,1.8c0.3,0.8,1,1.4,1.8,1.3
					c0.4-0.1,0.8-0.3,1-0.7C493.5,122.4,493.3,121.5,492.2,120.6z"/>
				<path class="st3" d="M514.7,102.4c-0.3,0.6,0.2,1.5,1.2,1.9c0.5,0.2,1.2-0.1,1.5-0.6c0.3-0.7,0-1.6-0.6-1.9
					C516,101.5,515,101.8,514.7,102.4z"/>
				<path class="st3" d="M494.7,118.9c-0.2,0.4,0,1.1,0.7,1.4c0.2-0.2,0.7-0.4,0.9-0.7c0.3-0.4,0-0.8-0.5-1
					C495.4,118.5,494.9,118.4,494.7,118.9z"/>
				<path class="st3" d="M494.1,123.7c-0.6,1.1,0,2,0.6,2.5c0.6,0.5,2.1,0.9,2.8-0.4c0.7-1.3,0.4-2.4-0.4-2.9
					C496.3,122.3,494.6,122.8,494.1,123.7z"/>
				<path class="st3" d="M490.7,132.2c0.9,0.3,2.1-0.6,2.4-1.7c0.3-0.8-0.2-1.8-1.1-2c-1.5-0.3-1.9,0-2.5,1.4
					C489.1,130.8,489.8,131.9,490.7,132.2z"/>
				<path class="st3" d="M489.5,118.5c-0.1,0.3-0.1,0.5,0.2,0.6c0.3,0.1,0.5,0.1,0.6-0.2c0.1-0.3,0.1-0.5-0.2-0.6
					C489.8,118.1,489.6,118.2,489.5,118.5z"/>
				<path class="st3" d="M486.7,112.7c-0.3-0.2-1.1-0.6-1.6-0.3c-0.5,0.3-1.3,0.3-1.4,0.8c-0.2,0.4-0.1,0.7,0,0.9
					c0.1,0.3,0.1,0.6,0.5,0.9c0.4,0.3,1.3,0.6,1.9,0.4c0.6-0.2,1.1-0.8,1.1-1.4S487,113,486.7,112.7z"/>
				<path class="st3" d="M484.2,133.7c-0.2,0.9,0.3,1.9,1,2.2c0.7,0,1.4,0,2.1-0.1c0.4-0.2,0.7-0.6,0.9-1.1c0.3-0.9,0-1.6-0.7-2
					c0-0.1,0.1-0.1,0.1-0.2c0.2-0.8-0.4-1.9-1.4-2.3c-0.9-0.3-2.2,0.3-2.5,1.2C483.4,132.3,483.6,133.2,484.2,133.7z"/>
				<path class="st3" d="M487.8,126.3c-0.2,0.2,0.1,1,0.3,1c0.3,0.1,0.8,0.2,1,0c0.2-0.2,0.1-0.8-0.1-1
					C488.8,126.3,488,126.1,487.8,126.3z"/>
				<path class="st3" d="M487.2,122.8c-0.8-0.2-1.4,0.1-1.8,1c-0.3,0.9-0.1,1.3,0.9,1.7c0.9,0.3,1.6,0.1,1.8-0.5
					C488.4,124.4,487.8,122.9,487.2,122.8z"/>
				<path class="st3" d="M488.6,132.8c-0.3,0.4-0.2,1.1,0.2,1.4c0.5,0.4,1.1,0.2,1.5-0.3c0.4-0.5,0.3-1-0.2-1.3
					C489.6,132.2,489,132.3,488.6,132.8z"/>
				<path class="st3" d="M496.1,107.8c-0.2,0.9,0.8,1.3,1.2,1.1c0.4-0.2,0.6-0.8,0.4-1.2C497.4,107.2,497,107.2,496.1,107.8z"/>
				<path class="st3" d="M510,105c-0.3,0.2-0.3,0.7-0.2,1.1c0.1,0.4,0.4,0.8,0.9,0.6c0.5-0.2,0.9-0.4,0.7-1
					C511.4,105.2,510.3,104.8,510,105z"/>
				<path class="st3" d="M506.4,109.8c-0.8-0.4-1.9,0.3-2.3,1.2c-0.3,0.6,0.1,1.4,0.9,1.7c0.8,0.3,2,0,2.3-0.6
					C507.6,111.4,507.2,110.2,506.4,109.8z"/>
				<path class="st3" d="M502.8,104.1c-0.2,0-0.5,0-0.7,0c-0.9,0.1-1.8,0.7-1.9,1.5c-0.2,0.9,0.2,1.7,0.8,2.3
					c0.2,0.2,0.6,0.3,0.9,0.3c1.2-0.1,1.8-0.9,1.9-2.1c0-0.2,0-0.5,0-0.7c0.5,0,0.9,0.1,1.3,0c0.8-0.1,1.1-0.4,1.2-1.2
					c0-0.7-0.3-1.3-0.9-1.7c-0.6-0.3-1.2-0.1-1.7,0.3C503.3,103.3,503.1,103.7,502.8,104.1z"/>
				<path class="st3" d="M514.1,106.9c-0.4,0.1-0.7,0.5-0.7,1c-0.1-0.1-0.3-0.2-0.5-0.3c-0.7-0.3-1.3,0-1.7,1
					c-0.3,0.7,0,1.7,0.5,1.9c0.7,0.3,1.9-0.2,2.2-0.9c0.1-0.2,0.1-0.4,0.1-0.6c0.2,0.2,0.6,0.2,0.9,0.1c0.5-0.2,0.9-0.9,0.8-1.4
					C515.4,107.1,514.6,106.7,514.1,106.9z"/>
				<path class="st3" d="M511.7,96.3c-0.5,0.2-0.9,0.9-0.7,1.4s0.9,0.9,1.4,0.7c0.5-0.1,0.9-0.7,0.7-1.2
					C513,96.5,512.3,96.1,511.7,96.3z"/>
				<path class="st3" d="M502.7,115.6c-0.1,0-0.2,0.3-0.1,0.4c0,0.1,0.2,0.2,0.3,0.2s0.3-0.2,0.2-0.4
					C503.1,115.6,502.8,115.6,502.7,115.6z"/>
				<path class="st3" d="M503.1,108.9c-0.1-0.3-0.6-0.4-0.8-0.3c-0.2,0.1-0.4,0.4-0.4,0.6c0,0.2,0.4,0.4,0.6,0.4
					C502.8,109.5,503.3,109.2,503.1,108.9z"/>
				<path class="st3" d="M558.6,63.5c0.2,0.4,0.7,0.6,1.3,0.6c0.1-1.1,0.1-2.2,0.1-3.3c-0.3,0-0.6,0-0.8,0.1
					C558.4,61.3,558.2,62.6,558.6,63.5z"/>
				<path class="st3" d="M497.1,119.6c0,0.5,0.2,1,0.6,1.4c0.4,0.5,1.1,0.7,1.8,0.7c0.8,0,1.3,0.6,2.1,0.3c1-0.4,2.3-1.5,2.1-3.3
					c-0.1-1.1-0.6-1.8-1.3-2.2c-0.8-0.5-1.7,0.4-2.6,0.2C497.5,116.4,497,118.1,497.1,119.6z"/>
				<path class="st3" d="M505.8,102.3c0.5-0.1,0.6-1,0.6-1.5c0-0.3-0.9-1.3-1.4-1.1c-0.5,0.1-0.6,1.5-0.4,1.9
					C504.6,101.9,505.3,102.4,505.8,102.3z"/>
				<path class="st3" d="M503.4,113.8c-0.2-0.3-0.6-0.7-0.9-0.7c-0.8,0.1-1,0.7-1.1,1.5c0.4,0.4,0.9,0.9,1.6,0.5
					C503.5,114.9,503.7,114.3,503.4,113.8z"/>
			</g>
		</g>
		<rect x="329" y="168" class="st4" width="50" height="20"/>
		<path class="st4" d="M354,218c-5.5,0-10,4.5-10,10s4.5,10,10,10s10-4.5,10-10S359.5,218,354,218z"/>
		<path class="st4" d="M404,218c-5.5,0-10,4.5-10,10s4.5,10,10,10s10-4.5,10-10S409.5,218,404,218z"/>
		<path class="st4" d="M454,218c-5.5,0-10,4.5-10,10s4.5,10,10,10s10-4.5,10-10S459.5,218,454,218z"/>
		<path class="st4" d="M379,168c-5.5,0-10,4.5-10,10s4.5,10,10,10s10-4.5,10-10S384.5,168,379,168z"/>
		<path class="st4" d="M429,168c-5.5,0-10,4.5-10,10s4.5,10,10,10s10-4.5,10-10S434.5,168,429,168z"/>
		<path class="st4" d="M479,168c-5.5,0-10,4.5-10,10s4.5,10,10,10s10-4.5,10-10S484.5,168,479,168z"/>
		<path class="st4" d="M329,168c-5.5,0-10,4.5-10,10s4.5,10,10,10s10-4.5,10-10S334.5,168,329,168z"/>
	</g>
</g>
<rect class="st5" width="560" height="300"/>
</svg>
